<mxfile host="Electron" modified="2024-12-20T01:09:49.877Z" agent="Mozilla/5.0 (Windows NT 10.0; Win64; x64) AppleWebKit/537.36 (KHTML, like Gecko) draw.io/24.0.4 Chrome/120.0.6099.109 Electron/28.1.0 Safari/537.36" etag="-Am_Dg1rETv4kDIQSMrc" version="24.0.4" type="device">
  <diagram name="Page-1" id="Vy-BQwAggm7vfKJ6GZ4N">
    <mxGraphModel dx="1050" dy="669" grid="1" gridSize="10" guides="1" tooltips="1" connect="1" arrows="1" fold="1" page="1" pageScale="1" pageWidth="850" pageHeight="1100" math="0" shadow="0">
      <root>
        <mxCell id="0" />
        <mxCell id="1" parent="0" />
        <mxCell id="rxgulhGFYmPkyKOO857e-10" style="edgeStyle=orthogonalEdgeStyle;rounded=0;orthogonalLoop=1;jettySize=auto;html=1;exitX=0.5;exitY=0;exitDx=0;exitDy=0;entryX=0.5;entryY=1;entryDx=0;entryDy=0;" edge="1" parent="1" source="rxgulhGFYmPkyKOO857e-2" target="rxgulhGFYmPkyKOO857e-7">
          <mxGeometry relative="1" as="geometry" />
        </mxCell>
        <mxCell id="rxgulhGFYmPkyKOO857e-17" style="edgeStyle=orthogonalEdgeStyle;rounded=0;orthogonalLoop=1;jettySize=auto;html=1;exitX=0;exitY=0.5;exitDx=0;exitDy=0;entryX=1;entryY=0.5;entryDx=0;entryDy=0;" edge="1" parent="1" source="rxgulhGFYmPkyKOO857e-2" target="rxgulhGFYmPkyKOO857e-16">
          <mxGeometry relative="1" as="geometry" />
        </mxCell>
        <mxCell id="rxgulhGFYmPkyKOO857e-27" style="edgeStyle=orthogonalEdgeStyle;rounded=0;orthogonalLoop=1;jettySize=auto;html=1;exitX=0;exitY=0;exitDx=0;exitDy=0;entryX=0.5;entryY=1;entryDx=0;entryDy=0;" edge="1" parent="1" source="rxgulhGFYmPkyKOO857e-2" target="rxgulhGFYmPkyKOO857e-25">
          <mxGeometry relative="1" as="geometry" />
        </mxCell>
        <mxCell id="rxgulhGFYmPkyKOO857e-2" value="user" style="html=1;dashed=0;whiteSpace=wrap;" vertex="1" parent="1">
          <mxGeometry x="700" y="680" width="100" height="50" as="geometry" />
        </mxCell>
        <mxCell id="rxgulhGFYmPkyKOO857e-14" style="edgeStyle=orthogonalEdgeStyle;rounded=0;orthogonalLoop=1;jettySize=auto;html=1;exitX=0;exitY=0.5;exitDx=0;exitDy=0;entryX=1;entryY=0.5;entryDx=0;entryDy=0;" edge="1" parent="1" source="rxgulhGFYmPkyKOO857e-3" target="rxgulhGFYmPkyKOO857e-13">
          <mxGeometry relative="1" as="geometry" />
        </mxCell>
        <mxCell id="rxgulhGFYmPkyKOO857e-22" style="edgeStyle=orthogonalEdgeStyle;rounded=0;orthogonalLoop=1;jettySize=auto;html=1;exitX=0.5;exitY=1;exitDx=0;exitDy=0;entryX=0.5;entryY=0;entryDx=0;entryDy=0;" edge="1" parent="1" source="rxgulhGFYmPkyKOO857e-3" target="rxgulhGFYmPkyKOO857e-20">
          <mxGeometry relative="1" as="geometry" />
        </mxCell>
        <mxCell id="rxgulhGFYmPkyKOO857e-35" style="edgeStyle=orthogonalEdgeStyle;rounded=0;orthogonalLoop=1;jettySize=auto;html=1;exitX=0;exitY=0.75;exitDx=0;exitDy=0;entryX=0.5;entryY=1;entryDx=0;entryDy=0;" edge="1" parent="1" source="rxgulhGFYmPkyKOO857e-3" target="rxgulhGFYmPkyKOO857e-31">
          <mxGeometry relative="1" as="geometry" />
        </mxCell>
        <mxCell id="rxgulhGFYmPkyKOO857e-39" style="edgeStyle=orthogonalEdgeStyle;rounded=0;orthogonalLoop=1;jettySize=auto;html=1;exitX=0;exitY=1;exitDx=0;exitDy=0;entryX=0.5;entryY=0;entryDx=0;entryDy=0;" edge="1" parent="1" source="rxgulhGFYmPkyKOO857e-3" target="rxgulhGFYmPkyKOO857e-37">
          <mxGeometry relative="1" as="geometry" />
        </mxCell>
        <mxCell id="rxgulhGFYmPkyKOO857e-3" value="Receptionst" style="html=1;dashed=0;whiteSpace=wrap;" vertex="1" parent="1">
          <mxGeometry x="670" y="290" width="100" height="50" as="geometry" />
        </mxCell>
        <mxCell id="rxgulhGFYmPkyKOO857e-4" value="users data file" style="html=1;dashed=0;whiteSpace=wrap;shape=mxgraph.dfd.dataStoreID;align=left;spacingLeft=3;points=[[0,0],[0.5,0],[1,0],[0,0.5],[1,0.5],[0,1],[0.5,1],[1,1]];" vertex="1" parent="1">
          <mxGeometry x="90" y="310" width="100" height="30" as="geometry" />
        </mxCell>
        <mxCell id="rxgulhGFYmPkyKOO857e-5" value="Classes &amp;amp; Role file&amp;nbsp;" style="html=1;dashed=0;whiteSpace=wrap;shape=mxgraph.dfd.dataStoreID;align=left;spacingLeft=3;points=[[0,0],[0.5,0],[1,0],[0,0.5],[1,0.5],[0,1],[0.5,1],[1,1]];" vertex="1" parent="1">
          <mxGeometry x="90" y="360" width="100" height="30" as="geometry" />
        </mxCell>
        <mxCell id="rxgulhGFYmPkyKOO857e-38" style="edgeStyle=orthogonalEdgeStyle;rounded=0;orthogonalLoop=1;jettySize=auto;html=1;exitX=1;exitY=0;exitDx=0;exitDy=0;entryX=0;entryY=1;entryDx=0;entryDy=0;" edge="1" parent="1" source="rxgulhGFYmPkyKOO857e-6" target="rxgulhGFYmPkyKOO857e-31">
          <mxGeometry relative="1" as="geometry">
            <Array as="points">
              <mxPoint x="190" y="400" />
              <mxPoint x="433" y="400" />
            </Array>
          </mxGeometry>
        </mxCell>
        <mxCell id="rxgulhGFYmPkyKOO857e-6" value="Machines File" style="html=1;dashed=0;whiteSpace=wrap;shape=mxgraph.dfd.dataStoreID;align=left;spacingLeft=3;points=[[0,0],[0.5,0],[1,0],[0,0.5],[1,0.5],[0,1],[0.5,1],[1,1]];" vertex="1" parent="1">
          <mxGeometry x="90" y="430" width="100" height="30" as="geometry" />
        </mxCell>
        <mxCell id="rxgulhGFYmPkyKOO857e-26" style="edgeStyle=orthogonalEdgeStyle;rounded=0;orthogonalLoop=1;jettySize=auto;html=1;entryX=1;entryY=0.5;entryDx=0;entryDy=0;" edge="1" parent="1" source="rxgulhGFYmPkyKOO857e-7" target="rxgulhGFYmPkyKOO857e-3">
          <mxGeometry relative="1" as="geometry" />
        </mxCell>
        <mxCell id="rxgulhGFYmPkyKOO857e-7" value="Enter personal data" style="shape=ellipse;html=1;dashed=0;whiteSpace=wrap;aspect=fixed;perimeter=ellipsePerimeter;" vertex="1" parent="1">
          <mxGeometry x="810" y="410" width="80" height="80" as="geometry" />
        </mxCell>
        <mxCell id="rxgulhGFYmPkyKOO857e-12" value="1.0" style="text;html=1;align=center;verticalAlign=middle;resizable=0;points=[];autosize=1;strokeColor=none;fillColor=none;" vertex="1" parent="1">
          <mxGeometry x="825" y="410" width="40" height="30" as="geometry" />
        </mxCell>
        <mxCell id="rxgulhGFYmPkyKOO857e-15" style="edgeStyle=orthogonalEdgeStyle;rounded=0;orthogonalLoop=1;jettySize=auto;html=1;exitX=0;exitY=0.5;exitDx=0;exitDy=0;entryX=1;entryY=0.5;entryDx=0;entryDy=0;" edge="1" parent="1" source="rxgulhGFYmPkyKOO857e-13" target="rxgulhGFYmPkyKOO857e-4">
          <mxGeometry relative="1" as="geometry" />
        </mxCell>
        <mxCell id="rxgulhGFYmPkyKOO857e-13" value="update data&amp;nbsp;" style="shape=ellipse;html=1;dashed=0;whiteSpace=wrap;aspect=fixed;perimeter=ellipsePerimeter;" vertex="1" parent="1">
          <mxGeometry x="425" y="130" width="75" height="75" as="geometry" />
        </mxCell>
        <mxCell id="rxgulhGFYmPkyKOO857e-18" style="edgeStyle=orthogonalEdgeStyle;rounded=0;orthogonalLoop=1;jettySize=auto;html=1;exitX=0;exitY=0.5;exitDx=0;exitDy=0;entryX=1;entryY=0.5;entryDx=0;entryDy=0;" edge="1" parent="1" source="rxgulhGFYmPkyKOO857e-16" target="rxgulhGFYmPkyKOO857e-5">
          <mxGeometry relative="1" as="geometry" />
        </mxCell>
        <mxCell id="rxgulhGFYmPkyKOO857e-16" value="&amp;nbsp;Chosoe&lt;div&gt;Class&amp;amp; Role&lt;/div&gt;" style="shape=ellipse;html=1;dashed=0;whiteSpace=wrap;aspect=fixed;perimeter=ellipsePerimeter;" vertex="1" parent="1">
          <mxGeometry x="375" y="580" width="90" height="90" as="geometry" />
        </mxCell>
        <mxCell id="rxgulhGFYmPkyKOO857e-19" value="3.0" style="text;html=1;align=center;verticalAlign=middle;resizable=0;points=[];autosize=1;strokeColor=none;fillColor=none;" vertex="1" parent="1">
          <mxGeometry x="400" y="580" width="40" height="30" as="geometry" />
        </mxCell>
        <mxCell id="rxgulhGFYmPkyKOO857e-21" style="edgeStyle=orthogonalEdgeStyle;rounded=0;orthogonalLoop=1;jettySize=auto;html=1;exitX=0.5;exitY=1;exitDx=0;exitDy=0;entryX=0.25;entryY=0;entryDx=0;entryDy=0;" edge="1" parent="1" source="rxgulhGFYmPkyKOO857e-20" target="rxgulhGFYmPkyKOO857e-2">
          <mxGeometry relative="1" as="geometry" />
        </mxCell>
        <mxCell id="rxgulhGFYmPkyKOO857e-20" value="View available plans" style="shape=ellipse;html=1;dashed=0;whiteSpace=wrap;aspect=fixed;perimeter=ellipsePerimeter;" vertex="1" parent="1">
          <mxGeometry x="700" y="410" width="80" height="80" as="geometry" />
        </mxCell>
        <mxCell id="rxgulhGFYmPkyKOO857e-23" value="2.0" style="text;html=1;align=center;verticalAlign=middle;resizable=0;points=[];autosize=1;strokeColor=none;fillColor=none;" vertex="1" parent="1">
          <mxGeometry x="720" y="410" width="40" height="30" as="geometry" />
        </mxCell>
        <mxCell id="rxgulhGFYmPkyKOO857e-29" style="edgeStyle=orthogonalEdgeStyle;rounded=0;orthogonalLoop=1;jettySize=auto;html=1;entryX=0.25;entryY=1;entryDx=0;entryDy=0;" edge="1" parent="1" source="rxgulhGFYmPkyKOO857e-25" target="rxgulhGFYmPkyKOO857e-3">
          <mxGeometry relative="1" as="geometry" />
        </mxCell>
        <mxCell id="rxgulhGFYmPkyKOO857e-25" value="Complete the payment process" style="shape=ellipse;html=1;dashed=0;whiteSpace=wrap;aspect=fixed;perimeter=ellipsePerimeter;" vertex="1" parent="1">
          <mxGeometry x="600" y="400" width="90" height="90" as="geometry" />
        </mxCell>
        <mxCell id="rxgulhGFYmPkyKOO857e-28" value="4.0" style="text;html=1;align=center;verticalAlign=middle;resizable=0;points=[];autosize=1;strokeColor=none;fillColor=none;" vertex="1" parent="1">
          <mxGeometry x="625" y="400" width="40" height="30" as="geometry" />
        </mxCell>
        <mxCell id="rxgulhGFYmPkyKOO857e-30" value="5.0" style="text;html=1;align=center;verticalAlign=middle;resizable=0;points=[];autosize=1;strokeColor=none;fillColor=none;" vertex="1" parent="1">
          <mxGeometry x="442.5" y="130" width="40" height="30" as="geometry" />
        </mxCell>
        <mxCell id="rxgulhGFYmPkyKOO857e-34" style="edgeStyle=orthogonalEdgeStyle;rounded=0;orthogonalLoop=1;jettySize=auto;html=1;entryX=1;entryY=0.5;entryDx=0;entryDy=0;" edge="1" parent="1" source="rxgulhGFYmPkyKOO857e-31" target="rxgulhGFYmPkyKOO857e-33">
          <mxGeometry relative="1" as="geometry" />
        </mxCell>
        <mxCell id="rxgulhGFYmPkyKOO857e-31" value="Send maintenance requests" style="shape=ellipse;html=1;dashed=0;whiteSpace=wrap;aspect=fixed;perimeter=ellipsePerimeter;" vertex="1" parent="1">
          <mxGeometry x="420" y="230" width="90" height="90" as="geometry" />
        </mxCell>
        <mxCell id="rxgulhGFYmPkyKOO857e-33" value="Maintenance workers" style="html=1;dashed=0;whiteSpace=wrap;" vertex="1" parent="1">
          <mxGeometry x="110" y="220" width="100" height="50" as="geometry" />
        </mxCell>
        <mxCell id="rxgulhGFYmPkyKOO857e-36" value="6.0" style="text;html=1;align=center;verticalAlign=middle;resizable=0;points=[];autosize=1;strokeColor=none;fillColor=none;" vertex="1" parent="1">
          <mxGeometry x="442.5" y="230" width="40" height="30" as="geometry" />
        </mxCell>
        <mxCell id="rxgulhGFYmPkyKOO857e-40" style="edgeStyle=orthogonalEdgeStyle;rounded=0;orthogonalLoop=1;jettySize=auto;html=1;exitX=0.5;exitY=1;exitDx=0;exitDy=0;entryX=1;entryY=0.5;entryDx=0;entryDy=0;" edge="1" parent="1" source="rxgulhGFYmPkyKOO857e-37" target="rxgulhGFYmPkyKOO857e-6">
          <mxGeometry relative="1" as="geometry" />
        </mxCell>
        <mxCell id="rxgulhGFYmPkyKOO857e-37" value="Update equipment status" style="shape=ellipse;html=1;dashed=0;whiteSpace=wrap;aspect=fixed;perimeter=ellipsePerimeter;" vertex="1" parent="1">
          <mxGeometry x="430" y="402.5" width="85" height="85" as="geometry" />
        </mxCell>
        <mxCell id="rxgulhGFYmPkyKOO857e-41" value="7.0" style="text;html=1;align=center;verticalAlign=middle;resizable=0;points=[];autosize=1;strokeColor=none;fillColor=none;" vertex="1" parent="1">
          <mxGeometry x="452.5" y="400" width="40" height="30" as="geometry" />
        </mxCell>
      </root>
    </mxGraphModel>
  </diagram>
</mxfile>
